<svg width="24" height="165" viewBox="0 0 24 165" fill="none" xmlns="http://www.w3.org/2000/svg">
<path d="M4 11H16V13H4V11ZM4 6H20V8H4V6ZM4 18H11H11.235V16H11H4V18Z" fill="white"/>
<path d="M5.79403 158.574L5.79403 155.902L13 155.902L13 154.078L5.79403 154.078L5.79403 151.406L4.27273 151.406L4.27273 158.574L5.79403 158.574ZM13 149.8L11.0099 149.152L11.0099 146.003L13 145.355L13 143.378L4.27273 146.386L4.27273 148.764L13 151.777L13 149.8ZM9.5696 148.683L6.26704 147.609L6.26704 147.541L9.5696 146.467L9.5696 148.683ZM13 142.327L13 138.599C13 136.638 11.9773 135.594 10.5881 135.594C9.29687 135.594 8.51704 136.519 8.47017 137.512L8.38494 137.512C8.1804 136.604 7.53693 135.935 6.50994 135.935C5.2017 135.935 4.27273 136.907 4.27273 138.833L4.27273 142.327L13 142.327ZM11.4915 140.482L9.17329 140.482L9.17329 138.935C9.17329 138.049 9.68466 137.499 10.4048 137.499C11.0611 137.499 11.4915 137.947 11.4915 138.978L11.4915 140.482ZM7.92472 140.482L5.7642 140.482L5.7642 139.08C5.7642 138.262 6.18608 137.798 6.81676 137.798C7.5071 137.798 7.92471 138.36 7.92472 139.114L7.92472 140.482ZM13 134.394L13 128.807L11.4787 128.807L11.4787 132.549L4.27273 132.549L4.27273 134.394L13 134.394ZM13 127.585L13 121.687L11.4787 121.687L11.4787 125.74L9.39488 125.74L9.39488 122.007L7.87358 122.007L7.87358 125.74L5.79403 125.74L5.79403 121.705L4.27273 121.705L4.27273 127.585L13 127.585ZM8.63636 109.44C5.78125 109.44 4.15341 111.213 4.15341 113.527C4.15341 115.854 5.78125 117.614 8.63636 117.614C11.4787 117.614 13.1193 115.854 13.1193 113.527C13.1193 111.213 11.4915 109.44 8.63636 109.44ZM8.63636 111.311C10.4858 111.311 11.4872 112.189 11.4872 113.527C11.4872 114.869 10.4858 115.743 8.63636 115.743C6.78693 115.743 5.78551 114.869 5.78551 113.527C5.78551 112.189 6.78693 111.311 8.63636 111.311ZM13 108.074L13 106.228L9.39488 106.228L9.39488 102.679L7.87358 102.679L7.87358 106.228L5.79403 106.228L5.79403 102.295L4.27272 102.295L4.27272 108.074L13 108.074ZM7.32812 90.5763C5.3125 90.8192 4.15341 92.3448 4.15341 94.3647C4.15341 96.6701 5.78125 98.43 8.63636 98.43C11.483 98.43 13.1193 96.6999 13.1193 94.3647C13.1193 92.1275 11.6321 90.7766 10.0256 90.5763L10.017 92.4428C10.9503 92.6175 11.4872 93.3505 11.4872 94.3349C11.4872 95.6602 10.5028 96.5593 8.63636 96.5593C6.82102 96.5593 5.78551 95.6729 5.78551 94.3221C5.78551 93.3121 6.36932 92.5835 7.32812 92.4428L7.32812 90.5763ZM8.63636 81.2333C5.78125 81.2333 4.15341 83.006 4.15341 85.32C4.15341 87.6467 5.78125 89.4066 8.63636 89.4066C11.4787 89.4066 13.1193 87.6467 13.1193 85.32C13.1193 83.006 11.4915 81.2333 8.63636 81.2333ZM8.63636 83.104C10.4858 83.104 11.4872 83.9819 11.4872 85.32C11.4872 86.6623 10.4858 87.5359 8.63636 87.5359C6.78693 87.5359 5.78551 86.6623 5.78551 85.32C5.78551 83.9819 6.78693 83.104 8.63636 83.104ZM4.27272 72.5668L4.27272 74.4034L9.76136 74.4034L9.76136 74.4801L4.27272 78.2472L4.27272 79.8665L13 79.8665L13 78.0213L7.5071 78.0213L7.5071 77.9574L13 74.1605L13 72.5668L4.27272 72.5668ZM5.79403 71.3746L5.79403 68.7028L13 68.7028L13 66.8789L5.79403 66.8789L5.79403 64.207L4.27272 64.207L4.27272 71.3746L5.79403 71.3746ZM13 63.0266L13 57.1289L11.4787 57.1289L11.4787 61.1815L9.39488 61.1815L9.39488 57.4485L7.87357 57.4485L7.87358 61.1815L5.79403 61.1815L5.79403 57.146L4.27272 57.146L4.27272 63.0266L13 63.0266ZM4.27272 48.3793L4.27272 50.2159L9.76136 50.2159L9.76136 50.2926L4.27272 54.0597L4.27272 55.679L13 55.679L13 53.8338L7.5071 53.8338L7.5071 53.7699L13 49.973L13 48.3793L4.27272 48.3793ZM5.79403 47.1871L5.79403 44.5153L13 44.5153L13 42.6914L5.79403 42.6914L5.79403 40.0195L4.27272 40.0195L4.27272 47.1871L5.79403 47.1871ZM6.78266 34.1048L6.78266 32.3363C5.22727 32.3619 4.1534 33.6403 4.1534 35.5835C4.1534 37.4968 5.21022 38.8988 6.79545 38.8903C8.08238 38.8945 8.8196 37.9869 9.17329 36.5124L9.41193 35.5621C9.64204 34.6119 9.91477 34.0835 10.5028 34.0792C11.142 34.0835 11.5767 34.6886 11.5767 35.6261C11.5767 36.5849 11.1335 37.2752 10.2599 37.3349L10.2599 39.1204C12.1477 39.0735 13.1236 37.7227 13.1236 35.6048C13.1236 33.4741 12.1051 32.2212 10.5071 32.217C9.05397 32.2212 8.28266 33.3164 7.94176 34.8335L7.75426 35.6175C7.57954 36.3761 7.29829 37.011 6.67187 36.9982C6.10937 36.9982 5.69602 36.4996 5.69602 35.5962C5.69602 34.7141 6.09659 34.1729 6.78266 34.1048Z" fill="white"/>
</svg>
